<svg id="Layer_1" data-name="Layer 1" xmlns="http://www.w3.org/2000/svg" viewBox="0 0 603.57 603.57"><defs><style>.cls-1{fill:#afd275;}.cls-2{fill:none;stroke:#afd275;stroke-miterlimit:10;stroke-width:25px;}</style></defs><rect class="cls-1" x="112.45" y="134.03" width="22.01" height="214.26"/><rect class="cls-1" x="471.36" y="134.13" width="22.01" height="214.15"/><polygon class="cls-1" points="310.54 239.48 186.45 134.33 153.69 134.33 296.57 255.41 310.54 239.48"/><path class="cls-1" d="M808.12,571.39l-.33.37A4.72,4.72,0,0,0,808.12,571.39Z" transform="translate(-540.93 -235.36)"/><path class="cls-1" d="M1020.78,651.22a1,1,0,0,1,0-1.93c8.44-5.51,13.52-12.58,13.52-20.28,0-17.6-26.46-31.87-59.09-31.87-7.35,0-14.71.15-22.07.25-19.93.26-36.62,8.67-36.62,19.68,0,.84,1.27,1.53,2.84,1.53h35.75c6.72,0,13.45.18,20.16-.07,10.49-.4,19.64,4.94,19.64,10.49a6.11,6.11,0,0,1-.23,1.63c-.74,2.58-3.29,5-7,6.61-4.52,2-9.63,2.35-15.28,2.4-2.24,0-4.42.14-6.65.19-3.29,0-6.57.08-9.86.08-6.57,0-13.15-.08-19.73-.08H861.06c-1.56,0-2.83.69-2.83,1.53v18.19c0,.84,1.27,1.53,2.83,1.53h85.06c9.68,0,19.3,0,29-.16,10.53-.15,19.82,4.91,19.82,10.57a5.33,5.33,0,0,1-.1,1,4.74,4.74,0,0,1-.18.72c-.81,2.58-3.47,4.93-7.27,6.55a28.48,28.48,0,0,1-6.32,1.81,63,63,0,0,1-10.23.7h-168a5.16,5.16,0,0,0-1.22.15l-17.23,0-28.42.07q-11.8.06-23.66.08c-5.67,0-11.36.05-17,.05-2.86,0-5.73,0-8.58,0-.08,0-.84.25-.33-.33,29.43-32.12,64.72-70.57,93-101.38l.16-.17.06-.08,0,0s0,0,0,0l0,0a.45.45,0,0,0,.09-.1l.22-.24L801.1,579l.34-.37c.24-.25.48-.51.71-.77l.18-.19,1.8-2,.58-.62.51-.56c.17-.18.33-.37.52-.56l.84-.91.17-.21c.13-.13.26-.28.38-.41l.23-.24q.3-.32.48-.54s.08-.09.12-.12a.43.43,0,0,1,.09-.1l.08-.08.64-.7,1.11-1.21s0,0,0,0h0l.39-.41c.12-.13.23-.26.36-.39l.18-.2q.21-.24.45-.48a.1.1,0,0,1,.05-.07c.11-.11.21-.24.32-.35a1.14,1.14,0,0,0,.15-.16c.11-.11.2-.22.3-.33.88-1,1.83-2,2.82-3.06L993,369.82a1.64,1.64,0,0,0-.22-.14H962.65Q809.31,536.89,656.06,703.87l30.55,0c.15-.07,0-.09.18-.16a3.77,3.77,0,0,1,.86,0q57.08,0,114.28-.21a5.57,5.57,0,0,0,.84.08H974.82v-.22h.39c32.63,0,59.09-14.26,59.09-31.86C1034.3,663.79,1029.22,656.73,1020.78,651.22Z" transform="translate(-540.93 -235.36)"/><circle class="cls-2" cx="301.79" cy="301.79" r="289.29"/></svg>